<svg width="24" height="25" viewBox="0 0 24 25" fill="none" xmlns="http://www.w3.org/2000/svg">
<g clip-path="url(#clip0_106_1036)">
<path d="M22 6.22411V2.50011C22 1.94811 21.553 1.50011 21 1.50011C20.447 1.50011 20 1.94811 20 2.50011V4.86611L14.797 1.35511C13.098 0.209105 10.902 0.209105 9.203 1.35511L2.203 6.07911C0.824 7.01011 0 8.55911 0 10.2241V19.5001C0 22.2571 2.243 24.5001 5 24.5001H8C8.553 24.5001 9 24.0521 9 23.5001V15.5001C9 14.9491 9.448 14.5001 10 14.5001H14C14.552 14.5001 15 14.9491 15 15.5001V23.5001C15 24.0521 15.447 24.5001 16 24.5001H19C21.757 24.5001 24 22.2571 24 19.5001V10.2241C24 8.64311 23.256 7.16611 22 6.22411ZM22 19.5001C22 21.1541 20.654 22.5001 19 22.5001H17V15.5001C17 13.8461 15.654 12.5001 14 12.5001H10C8.346 12.5001 7 13.8461 7 15.5001V22.5001H5C3.346 22.5001 2 21.1541 2 19.5001V10.2241C2 9.22511 2.494 8.29511 3.322 7.73711L10.322 3.01311C11.342 2.32511 12.658 2.32511 13.677 3.01311L20.677 7.73711C21.505 8.29511 21.999 9.22511 21.999 10.2241L22 19.5001Z" fill="#B4B9BD"/>
</g>
<defs>
<clipPath id="clip0_106_1036">
<rect width="24" height="24" fill="white" transform="translate(0 0.5)"/>
</clipPath>
</defs>
</svg>
